<svg width="117" height="29" viewBox="0 0 117 29" fill="none" xmlns="http://www.w3.org/2000/svg">
<path d="M7.71094 13V15.5H0.484375V13H7.71094ZM2.125 10.125H5.45313V21.3125C5.45313 21.6198 5.5 21.8594 5.59375 22.0312C5.6875 22.1979 5.81771 22.3151 5.98438 22.3828C6.15625 22.4505 6.35417 22.4844 6.57813 22.4844C6.73438 22.4844 6.89063 22.4714 7.04688 22.4453C7.20312 22.4141 7.32292 22.3906 7.40625 22.375L7.92969 24.8516C7.76302 24.9036 7.52865 24.9635 7.22656 25.0313C6.92448 25.1042 6.55729 25.1484 6.125 25.1641C5.32292 25.1953 4.61979 25.0885 4.01563 24.8437C3.41667 24.599 2.95052 24.2187 2.61719 23.7031C2.28385 23.1875 2.11979 22.5365 2.125 21.75V10.125ZM9.87891 25V13H13.1055V15.0937H13.2305C13.4492 14.349 13.8164 13.7865 14.332 13.4063C14.8477 13.0208 15.4414 12.8281 16.1133 12.8281C16.2799 12.8281 16.4596 12.8385 16.6523 12.8594C16.8451 12.8802 17.0143 12.9089 17.1602 12.9453V15.8984C17.0039 15.8516 16.7878 15.8099 16.5117 15.7734C16.2357 15.737 15.9831 15.7188 15.7539 15.7188C15.2643 15.7188 14.8268 15.8255 14.4414 16.0391C14.0612 16.2474 13.7591 16.5391 13.5352 16.9141C13.3164 17.2891 13.207 17.7214 13.207 18.2109V25H9.87891ZM21.959 25.2266C21.1934 25.2266 20.5111 25.0938 19.9121 24.8281C19.3132 24.5573 18.8392 24.1589 18.4902 23.6328C18.1465 23.1016 17.9746 22.4401 17.9746 21.6484C17.9746 20.9818 18.097 20.4219 18.3418 19.9687C18.5866 19.5156 18.9199 19.151 19.3418 18.875C19.7637 18.599 20.2428 18.3906 20.7793 18.25C21.321 18.1094 21.8887 18.0104 22.4824 17.9531C23.1803 17.8802 23.7428 17.8125 24.1699 17.75C24.597 17.6823 24.9069 17.5833 25.0996 17.4531C25.2923 17.3229 25.3887 17.1302 25.3887 16.875V16.8281C25.3887 16.3333 25.2324 15.9505 24.9199 15.6797C24.6126 15.4089 24.1751 15.2734 23.6074 15.2734C23.0085 15.2734 22.5319 15.4062 22.1777 15.6719C21.8236 15.9323 21.5892 16.2604 21.4746 16.6562L18.3965 16.4062C18.5527 15.6771 18.86 15.0469 19.3184 14.5156C19.7767 13.9792 20.3678 13.5677 21.0918 13.2812C21.821 12.9896 22.6647 12.8438 23.623 12.8438C24.2897 12.8438 24.9277 12.9219 25.5371 13.0781C26.1517 13.2344 26.696 13.4766 27.1699 13.8047C27.6491 14.1328 28.0267 14.5547 28.3027 15.0703C28.5788 15.5807 28.7168 16.1927 28.7168 16.9062V25H25.5605V23.3359H25.4668C25.2741 23.7109 25.0163 24.0417 24.6934 24.3281C24.3704 24.6094 23.9824 24.8307 23.5293 24.9922C23.0762 25.1484 22.5527 25.2266 21.959 25.2266ZM22.9121 22.9297C23.4017 22.9297 23.834 22.8333 24.209 22.6406C24.584 22.4427 24.8783 22.1771 25.0918 21.8438C25.3053 21.5104 25.4121 21.1328 25.4121 20.7109V19.4375C25.3079 19.5052 25.1647 19.5677 24.9824 19.625C24.8053 19.6771 24.6048 19.7266 24.3809 19.7734C24.1569 19.8151 23.9329 19.8542 23.709 19.8906C23.485 19.9219 23.2819 19.9505 23.0996 19.9766C22.709 20.0339 22.3678 20.125 22.0762 20.25C21.7845 20.375 21.5579 20.5443 21.3965 20.7578C21.235 20.9661 21.1543 21.2266 21.1543 21.5391C21.1543 21.9922 21.3184 22.3385 21.6465 22.5781C21.9798 22.8125 22.4017 22.9297 22.9121 22.9297ZM31.2988 25V13H34.627V25H31.2988ZM32.9707 11.4531C32.4759 11.4531 32.0514 11.2891 31.6973 10.9609C31.3483 10.6276 31.1738 10.2292 31.1738 9.76562C31.1738 9.30729 31.3483 8.91406 31.6973 8.58594C32.0514 8.2526 32.4759 8.08594 32.9707 8.08594C33.4655 8.08594 33.8874 8.2526 34.2363 8.58594C34.5905 8.91406 34.7676 9.30729 34.7676 9.76562C34.7676 10.2292 34.5905 10.6276 34.2363 10.9609C33.8874 11.2891 33.4655 11.4531 32.9707 11.4531ZM40.6211 18.0625V25H37.293V13H40.4648V15.1172H40.6055C40.8711 14.4193 41.3164 13.8672 41.9414 13.4609C42.5664 13.0495 43.3242 12.8438 44.2148 12.8438C45.0482 12.8438 45.7747 13.026 46.3945 13.3906C47.0143 13.7552 47.4961 14.276 47.8398 14.9531C48.1836 15.625 48.3555 16.4271 48.3555 17.3594V25H45.0273V17.9531C45.0326 17.2187 44.8451 16.6458 44.4648 16.2344C44.0846 15.8177 43.5612 15.6094 42.8945 15.6094C42.4466 15.6094 42.0508 15.7057 41.707 15.8984C41.3685 16.0911 41.1029 16.3724 40.9102 16.7422C40.7227 17.1068 40.6263 17.5469 40.6211 18.0625ZM50.9785 25V13H54.1504V15.1172H54.291C54.541 14.4141 54.9577 13.8594 55.541 13.4531C56.1243 13.0469 56.8223 12.8438 57.6348 12.8438C58.4577 12.8438 59.1582 13.0495 59.7363 13.4609C60.3145 13.8672 60.6999 14.4193 60.8926 15.1172H61.0176C61.2624 14.4297 61.7051 13.8802 62.3457 13.4687C62.9915 13.0521 63.7546 12.8438 64.6348 12.8438C65.7546 12.8438 66.6634 13.2005 67.3613 13.9141C68.0645 14.6224 68.416 15.6276 68.416 16.9297V25H65.0957V17.5859C65.0957 16.9193 64.9186 16.4193 64.5645 16.0859C64.2103 15.7526 63.7676 15.5859 63.2363 15.5859C62.6322 15.5859 62.1608 15.7786 61.8223 16.1641C61.4837 16.5443 61.3145 17.0469 61.3145 17.6719V25H58.0879V17.5156C58.0879 16.9271 57.9186 16.4583 57.5801 16.1094C57.2467 15.7604 56.8066 15.5859 56.2598 15.5859C55.89 15.5859 55.5566 15.6797 55.2598 15.8672C54.9681 16.0495 54.7363 16.3073 54.5645 16.6406C54.3926 16.9687 54.3066 17.3542 54.3066 17.7969V25H50.9785ZM76.5137 25.2344C75.2793 25.2344 74.2168 24.9844 73.3262 24.4844C72.4408 23.9792 71.7585 23.2656 71.2793 22.3437C70.8001 21.4167 70.5605 20.3203 70.5605 19.0547C70.5605 17.8203 70.8001 16.737 71.2793 15.8047C71.7585 14.8724 72.4329 14.1458 73.3027 13.625C74.1777 13.1042 75.2038 12.8438 76.3809 12.8438C77.1725 12.8438 77.9095 12.9714 78.5918 13.2266C79.2793 13.4766 79.8783 13.8542 80.3887 14.3594C80.9043 14.8646 81.3053 15.5 81.5918 16.2656C81.8783 17.026 82.0215 17.9167 82.0215 18.9375V19.8516H71.8887V17.7891H78.8887C78.8887 17.3099 78.7845 16.8854 78.5762 16.5156C78.3678 16.1458 78.0788 15.8568 77.709 15.6484C77.3444 15.4349 76.9199 15.3281 76.4355 15.3281C75.9303 15.3281 75.4824 15.4453 75.0918 15.6797C74.7064 15.9089 74.4043 16.2187 74.1855 16.6094C73.9668 16.9948 73.8548 17.4245 73.8496 17.8984V19.8594C73.8496 20.4531 73.959 20.9661 74.1777 21.3984C74.4017 21.8307 74.7168 22.1641 75.123 22.3984C75.5293 22.6328 76.0111 22.75 76.5684 22.75C76.9382 22.75 77.2767 22.6979 77.584 22.5938C77.8913 22.4896 78.1543 22.3333 78.373 22.125C78.5918 21.9167 78.7585 21.6615 78.873 21.3594L81.9512 21.5625C81.7949 22.3021 81.4746 22.9479 80.9902 23.5C80.5111 24.0469 79.8913 24.474 79.1309 24.7813C78.3757 25.0833 77.5033 25.2344 76.5137 25.2344Z" fill="#89C5CC"/>
<path d="M113.461 28.116H115.728C115.728 28.116 116.862 15.8928 115.728 9.9464C114.595 3.99996 108.982 3.03468 104.011 3.99997C100.609 4.66064 96.0741 7.63389 96.0741 7.63389L97.586 9.28568L98.7199 8.62489C105.649 3.7332 113.461 5.00919 113.461 13.2499L113.461 28.116Z" fill="#CCCCCC" stroke="#CCCCCC"/>
<path d="M96.1694 4.19139C98.797 1.89639 103.056 1.89786 105.682 4.19469V4.19469C108.308 6.49151 108.307 10.2139 105.679 12.5089L101.559 16.1079L92.049 7.79032L96.1694 4.19139Z" fill="#C5CFD6"/>
<ellipse cx="1.67671" cy="6.29846" rx="1.67671" ry="6.29846" transform="matrix(0.745203 -0.666838 0.760545 0.649286 90.7124 9.03571)" fill="#F2F2F2"/>
</svg>
